<?xml version="1.0" standalone="no"?>
<!DOCTYPE svg PUBLIC "-//W3C//DTD SVG 20010904//EN"
 "http://www.w3.org/TR/2001/REC-SVG-20010904/DTD/svg10.dtd">
<svg version="1.0" xmlns="http://www.w3.org/2000/svg"
 width="300.000000pt" height="300.000000pt" viewBox="0 0 300.000000 300.000000"
 preserveAspectRatio="xMidYMid meet">
<metadata>
Created by potrace 1.14, written by Peter Selinger 2001-2017
</metadata>
<g transform="translate(0.000000,300.000000) scale(0.100000,-0.100000)"
fill="#000000" stroke="none">
<path d="M1405 2824 c-22 -2 -83 -11 -135 -20 -508 -87 -923 -477 -1048 -984
-100 -405 6 -848 279 -1163 330 -383 832 -543 1319 -421 697 175 1129 887 958
1584 -109 445 -441 801 -881 944 -135 44 -367 72 -492 60z m-350 -789 c246
-52 395 -238 395 -495 0 -145 -42 -260 -128 -353 -56 -60 -103 -90 -191 -125
-64 -25 -73 -26 -333 -30 l-268 -4 0 511 0 511 228 0 c161 0 247 -5 297 -15z
m785 -185 l0 -200 185 0 185 0 0 200 0 200 130 0 130 0 0 -510 0 -510 -130 0
-130 0 0 205 0 205 -185 0 -185 0 0 -205 0 -205 -130 0 -130 0 0 510 0 510
130 0 130 0 0 -200z"/>
<path d="M790 1540 l0 -293 98 6 c120 6 181 28 232 84 91 98 94 296 6 400 -51
58 -117 84 -238 90 l-98 6 0 -293z"/>
</g>
</svg>
